<svg width="100" height="100" viewBox="0 0 100 100" fill="none" xmlns="http://www.w3.org/2000/svg">
<rect width="100" height="100" rx="50" fill="#310D4D"/>
<path d="M34.7544 73.747L42.0431 81.0358C45.0322 84.0249 49.0863 85.7042 53.3136 85.7042C57.5408 85.7042 61.5949 84.0249 64.5841 81.0358C67.5732 78.0467 69.2524 73.9926 69.2524 69.7653C69.2524 65.5381 67.5732 61.484 64.5841 58.4948L54.8675 48.7836C53.0647 46.9811 50.8559 45.6373 48.4263 44.8651C45.9968 44.0929 43.4175 43.9148 40.9048 44.3457C38.3922 44.7767 36.0196 45.804 33.9862 47.3416C31.9528 48.8792 30.3179 50.8822 29.2188 53.1823L32.3319 56.2955C32.6485 56.6115 33.0037 56.8864 33.3891 57.1136C33.9 55.3364 34.8658 53.7233 36.1912 52.4338C37.5165 51.1443 39.1555 50.2231 40.946 49.7611C42.7365 49.2991 44.6166 49.3124 46.4004 49.7997C48.1842 50.287 49.8099 51.2314 51.1169 52.5395L60.8281 62.2455C62.8218 64.2391 63.9418 66.9432 63.9418 69.7627C63.9418 72.5821 62.8218 75.2862 60.8281 77.2798C58.8344 79.2735 56.1304 80.3936 53.3109 80.3936C50.4914 80.3936 47.7874 79.2735 45.7937 77.2798L41.5862 73.067C39.3589 73.6614 37.0499 73.8911 34.7491 73.747H34.7544Z" fill="white"/>
<path d="M24.82 63.8073C26.6228 65.6098 28.8316 66.9536 31.2612 67.7258C33.6907 68.498 36.27 68.6761 38.7827 68.2452C41.2953 67.8143 43.6679 66.7869 45.7013 65.2493C47.7347 63.7117 49.3696 61.7088 50.4687 59.4086L46.3462 55.2914C45.8631 57.0926 44.9144 58.7349 43.5954 60.0533C42.2765 61.3717 40.6338 62.3198 38.8324 62.8021C37.0309 63.2845 35.1343 63.2843 33.333 62.8014C31.5317 62.3186 29.8892 61.3701 28.5706 60.0514L18.8594 50.3455C16.8657 48.3518 15.7457 45.6478 15.7457 42.8283C15.7457 40.0088 16.8657 37.3048 18.8594 35.3111C20.8531 33.3174 23.5571 32.1974 26.3766 32.1974C29.1961 32.1974 31.9001 33.3174 33.8937 35.3111L38.1012 39.5239C40.3325 38.9289 42.6434 38.7005 44.9384 38.8439L37.6497 31.5552C34.6606 28.566 30.6065 26.8868 26.3792 26.8868C22.152 26.8868 18.0979 28.566 15.1088 31.5552C12.1196 34.5443 10.4404 38.5984 10.4404 42.8256C10.4404 47.0529 12.1196 51.107 15.1088 54.0961L24.82 63.8073Z" fill="white"/>
<path d="M71.9375 33C71.9375 34.5747 71.3119 36.0849 70.1984 37.1984C69.0849 38.3119 67.5747 38.9375 66 38.9375C64.4253 38.9375 62.9151 38.3119 61.8016 37.1984C60.6881 36.0849 60.0625 34.5747 60.0625 33C60.0625 31.4253 60.6881 29.9151 61.8016 28.8016C62.9151 27.6881 64.4253 27.0625 66 27.0625C67.5747 27.0625 69.0849 27.6881 70.1984 28.8016C71.3119 29.9151 71.9375 31.4253 71.9375 33V33Z" fill="white"/>
<path d="M47 33C47 33 54.125 19.9375 66 19.9375C77.875 19.9375 85 33 85 33C85 33 77.875 46.0625 66 46.0625C54.125 46.0625 47 33 47 33ZM66 41.3125C68.2046 41.3125 70.3189 40.4367 71.8778 38.8778C73.4367 37.3189 74.3125 35.2046 74.3125 33C74.3125 30.7954 73.4367 28.6811 71.8778 27.1222C70.3189 25.5633 68.2046 24.6875 66 24.6875C63.7954 24.6875 61.6811 25.5633 60.1222 27.1222C58.5633 28.6811 57.6875 30.7954 57.6875 33C57.6875 35.2046 58.5633 37.3189 60.1222 38.8778C61.6811 40.4367 63.7954 41.3125 66 41.3125V41.3125Z" fill="white"/>
</svg>
